<?xml version="1.0" encoding="iso-8859-1"?>
<!-- Generator: Adobe Illustrator 19.0.0, SVG Export Plug-In . SVG Version: 6.00 Build 0)  -->
<svg version="1.1" id="Capa_1" xmlns="http://www.w3.org/2000/svg" xmlns:xlink="http://www.w3.org/1999/xlink" x="0px" y="0px"
	 viewBox="0 0 464.015 464.015" style="enable-background:new 0 0 464.015 464.015;" xml:space="preserve">
<circle style="fill:#FAFDFF;" cx="224.008" cy="240.015" r="224"/>
<circle style="fill:#EAF6FD;" cx="224.008" cy="240.015" r="192"/>
<circle style="fill:#D9E3D4;" cx="224.008" cy="240.015" r="160"/>
<path style="fill:#BFC9BE;" d="M64.008,240c0,88.365,71.635,160,160,160V80C135.643,80,64.008,151.634,64.008,240z"/>
<g>
	<path style="fill:#FCD95F;" d="M400.008,0c0,36.77-27.229,64-64,64c36.771,0,64,27.226,64,64c0-36.774,27.229-64,64-64
		C427.236,64,400.008,36.77,400.008,0z"/>
	<path style="fill:#FCD95F;" d="M32.008,16c0,18.385-13.614,32-32,32c18.386,0,32,13.614,32,32c0-18.386,13.614-32,32-32
		C45.622,48,32.008,34.385,32.008,16z"/>
</g>
<path style="fill:#EDF1EA;" d="M323.844,126.864c62.483,62.483,62.486,163.789,0,226.274
	c-29.545,29.545-67.78,44.943-106.476,46.546c43.134,1.781,86.845-13.614,119.777-46.547c62.483-62.483,62.485-163.79,0-226.274
	c-32.934-32.934-76.651-48.327-119.787-46.543C256.059,81.922,294.295,97.315,323.844,126.864z"/>
<path style="fill:#BCC5B8;" d="M285.914,300c6.301,0,11.43,5.127,11.43,11.429c0,6.302-5.129,11.429-11.43,11.429
	c-6.305,0-11.434-5.127-11.434-11.429C274.48,305.127,279.609,300,285.914,300 M285.914,277.143
	c-18.914,0-34.289,15.375-34.289,34.286s15.375,34.286,34.289,34.286c18.91,0,34.285-15.375,34.285-34.286
	C320.199,292.518,304.824,277.143,285.914,277.143z"/>
<circle style="fill:#A7B0A6;" cx="175.44" cy="311.455" r="11.432"/>
<g>
	<circle style="fill:#BCC5B8;" cx="227.8" cy="132.855" r="5.712"/>
	<circle style="fill:#BCC5B8;" cx="239.248" cy="234.287" r="5.712"/>
</g>
<circle style="fill:#A7B0A6;" cx="114.04" cy="277.583" r="5.712"/>
<circle style="fill:#BCC5B8;" cx="330.68" cy="247.775" r="5.712"/>
<circle style="fill:#A7B0A6;" cx="205.44" cy="361.135" r="5.712"/>
<circle style="fill:#BCC5B8;" cx="292.6" cy="171.431" r="20"/>
<path style="fill:#EDF1EA;" d="M279.027,171.429c0-9.902,7.328-17.751,16.778-19.349c-1.094-0.185-2.082-0.651-3.226-0.651
	c-11.043,0-20,8.955-20,20s8.957,20,20,20c1.145,0,2.133-0.466,3.226-0.651C286.355,189.18,279.027,181.33,279.027,171.429z"/>
<path style="fill:#A7B0A6;" d="M159.722,175.714c12.606,0,22.859,10.254,22.859,22.858s-10.254,22.857-22.859,22.857
	s-22.859-10.254-22.859-22.857S147.117,175.714,159.722,175.714 M159.722,152.857c-25.215,0-45.715,20.5-45.715,45.714
	s20.5,45.714,45.715,45.714s45.715-20.5,45.715-45.714C205.437,173.357,184.937,152.857,159.722,152.857z"/>
<g>
</g>
<g>
</g>
<g>
</g>
<g>
</g>
<g>
</g>
<g>
</g>
<g>
</g>
<g>
</g>
<g>
</g>
<g>
</g>
<g>
</g>
<g>
</g>
<g>
</g>
<g>
</g>
<g>
</g>
</svg>
