<?xml version="1.0" encoding="iso-8859-1"?>
<!-- Generator: Adobe Illustrator 19.0.0, SVG Export Plug-In . SVG Version: 6.00 Build 0)  -->
<svg version="1.1" id="Capa_1" xmlns="http://www.w3.org/2000/svg" xmlns:xlink="http://www.w3.org/1999/xlink" x="0px" y="0px"
	 viewBox="0 0 496.005 496.005" style="enable-background:new 0 0 496.005 496.005;" xml:space="preserve">
<path style="fill:#FCF1CE;" d="M449.824,147.456l29.021-17.413c1.544-0.926,1.544-3.165,0-4.091l-29.021-17.414l20.149-27.191
	c1.072-1.447,0.216-3.515-1.566-3.78l-33.475-4.981l8.209-32.832c0.437-1.747-1.146-3.33-2.893-2.893l-32.833,8.208l-4.981-33.474
	c-0.265-1.782-2.333-2.638-3.78-1.566l-27.193,20.148L354.05,1.158c-0.926-1.544-3.165-1.544-4.091,0l-17.411,29.02L305.355,10.03
	c-1.447-1.072-3.515-0.216-3.78,1.566l-4.981,33.474l-32.833-8.208c-1.747-0.437-3.33,1.146-2.893,2.893l8.209,32.832l-33.475,4.981
	c-1.782,0.265-2.638,2.333-1.566,3.78l20.149,27.191l-29.021,17.414c-1.544,0.926-1.544,3.165,0,4.091l29.021,17.413l-20.149,27.191
	c-1.072,1.447-0.216,3.515,1.566,3.78l33.475,4.981l-8.209,32.833c-0.437,1.747,1.146,3.33,2.893,2.893l32.833-8.209l4.981,33.474
	c0.265,1.782,2.333,2.638,3.78,1.566l27.191-20.148l17.413,29.021c0.926,1.544,3.165,1.544,4.091,0l17.413-29.021l27.191,20.148
	c1.447,1.072,3.515,0.216,3.78-1.566l4.981-33.474l32.833,8.209c1.747,0.437,3.33-1.146,2.893-2.893l-8.209-32.833l33.475-4.981
	c1.782-0.265,2.638-2.333,1.566-3.78L449.824,147.456z"/>
<circle style="fill:#F9DB7B;" cx="352.013" cy="127.999" r="80"/>
<g>
	<path style="fill:#A4C4E7;" d="M208.002,496.005c-1.672,0-3.375-0.266-5.062-0.828c-8.375-2.797-12.906-11.859-10.11-20.242l32-96
		c2.797-8.383,11.782-12.93,20.234-10.117c8.375,2.797,12.906,11.859,10.11,20.242l-32,96
		C220.94,491.763,214.706,496.005,208.002,496.005z"/>
	<path style="fill:#A4C4E7;" d="M304.002,448.005c-1.672,0-3.375-0.266-5.062-0.828c-8.375-2.797-12.906-11.859-10.11-20.242l16-48
		c2.797-8.383,11.782-12.93,20.234-10.117c8.375,2.797,12.906,11.859,10.11,20.242l-16,48
		C316.94,443.763,310.706,448.005,304.002,448.005z"/>
	<path style="fill:#A4C4E7;" d="M144.002,448.005c-1.672,0-3.375-0.266-5.062-0.828c-8.375-2.797-12.906-11.859-10.11-20.242l16-48
		c2.797-8.383,11.797-12.93,20.234-10.117c8.375,2.797,12.906,11.859,10.11,20.242l-16,48
		C156.94,443.763,150.706,448.005,144.002,448.005z"/>
</g>
<path style="fill:#F3F3F3;" d="M368.002,143.997c-5.588,0-11.031,0.578-16.355,1.494c-21.918-39.059-63.668-65.494-111.645-65.494
	s-89.726,26.434-111.645,65.494c-5.324-0.916-10.767-1.494-16.355-1.494c-53.019,0-96,42.981-96,96s42.981,96,96,96h256
	c53.019,0,96-42.981,96-96S421.022,143.997,368.002,143.997z"/>
<path style="fill:#E1E1E1;" d="M368.002,143.997c-5.586,0-11.031,0.578-16.355,1.494c-0.098-0.177-0.23-0.332-0.332-0.509
	c10.57,18.62,16.687,40.1,16.687,63.041c0,70.678-57.297,127.974-127.973,127.974h127.973c53.019,0,96-42.981,96-96
	S421.022,143.997,368.002,143.997z"/>
<g>
</g>
<g>
</g>
<g>
</g>
<g>
</g>
<g>
</g>
<g>
</g>
<g>
</g>
<g>
</g>
<g>
</g>
<g>
</g>
<g>
</g>
<g>
</g>
<g>
</g>
<g>
</g>
<g>
</g>
</svg>
