<?xml version="1.0" encoding="iso-8859-1"?>
<!-- Generator: Adobe Illustrator 19.0.0, SVG Export Plug-In . SVG Version: 6.00 Build 0)  -->
<svg version="1.1" id="Capa_1" xmlns="http://www.w3.org/2000/svg" xmlns:xlink="http://www.w3.org/1999/xlink" x="0px" y="0px"
	 viewBox="0 0 449.695 449.695" style="enable-background:new 0 0 449.695 449.695;" xml:space="preserve">
<circle style="fill:#D9E3D4;" cx="336.001" cy="179.648" r="112"/>
<path style="fill:#EDF1EA;" d="M230.584,186.23c0-61.855,50.142-112,112-112c29.248,0,55.795,11.304,75.742,29.664
	C397.858,81.663,368.602,67.647,336,67.647c-61.855,0-112,50.143-112,112c0,32.603,14.019,61.862,36.254,82.329
	C241.89,242.028,230.584,215.482,230.584,186.23z"/>
<g>
	<path style="fill:#BCC5B8;" d="M291,134.648c8.822,0,16,7.178,16,16s-7.178,16-16,16s-16-7.178-16-16S282.178,134.648,291,134.648
		 M291,118.648c-17.65,0-32,14.35-32,32s14.35,32,32,32s32-14.35,32-32S308.65,118.648,291,118.648z"/>
	<path style="fill:#BCC5B8;" d="M379.334,221.648c4.412,0,8,3.589,8,8s-3.588,8-8,8s-8-3.589-8-8S374.922,221.648,379.334,221.648
		 M379.334,205.648c-13.238,0-24,10.762-24,24s10.762,24,24,24c13.236,0,24-10.762,24-24S392.57,205.648,379.334,205.648z"/>
</g>
<circle style="fill:#B3BDB2;" cx="302.001" cy="229.648" r="8"/>
<g>
	<circle style="fill:#BCC5B8;" cx="338.705" cy="104.648" r="4"/>
	<circle style="fill:#BCC5B8;" cx="346.705" cy="175.648" r="4"/>
	<circle style="fill:#BCC5B8;" cx="259.025" cy="205.952" r="4"/>
	<circle style="fill:#BCC5B8;" cx="410.705" cy="185.096" r="4"/>
	<circle style="fill:#BCC5B8;" cx="323.025" cy="264.432" r="4"/>
</g>
<path style="fill:#EDF1EA;" d="M305.754,222.707c0.617,1.134,1.058,2.371,1.058,3.753c0,4.418-3.582,8-8,8
	c-1.383,0-2.617-0.442-3.754-1.059c1.355,2.492,3.906,4.247,6.942,4.247c4.418,0,8-3.582,8-8
	C310,226.612,308.246,224.061,305.754,222.707z"/>
<circle style="fill:#BCC5B8;" cx="384.001" cy="131.648" r="14"/>
<path style="fill:#EDF1EA;" d="M392.297,120.669c1.778,2.346,3.019,5.126,3.019,8.295c0,7.731-6.267,14-14,14
	c-3.168,0-5.95-1.245-8.297-3.022c2.557,3.379,6.418,5.705,10.981,5.705c7.73,0,14-6.269,14-14
	C398,127.086,395.676,123.225,392.297,120.669z"/>
<g>
	<path style="fill:#FCD95F;" d="M144,19.648c0,36.77-27.229,64-64,64c36.771,0,64,27.226,64,64c0-36.774,27.229-64,64-64
		C171.229,83.648,144,56.417,144,19.648z"/>
	<path style="fill:#FCD95F;" d="M32,131.648c0,18.385-13.614,32-32,32c18.386,0,32,13.614,32,32c0-18.386,13.614-32,32-32
		C45.614,163.648,32,150.032,32,131.648z"/>
</g>
<g>
	<circle style="fill:#555655;" cx="49.585" cy="222.04" r="16"/>
	<circle style="fill:#555655;" cx="417.585" cy="414.048" r="16"/>
	<path style="fill:#555655;" d="M289.695,237.955H98.926c-8.189,0-15.924-5.566-17.066-13.674
		c-1.39-9.87,6.235-18.326,15.836-18.326h190.77c8.189,0,15.924,5.566,17.066,13.674C306.922,229.5,299.296,237.955,289.695,237.955
		z"/>
	<path style="fill:#555655;" d="M369.695,429.955h-254.77c-8.189,0-15.924-5.566-17.066-13.674
		c-1.39-9.87,6.235-18.326,15.836-18.326h254.77c8.189,0,15.924,5.566,17.066,13.674C386.922,421.5,379.296,429.955,369.695,429.955
		z"/>
	<path style="fill:#555655;" d="M433.695,365.955H18.926c-8.189,0-15.924-5.566-17.066-13.674
		c-1.39-9.87,6.235-18.326,15.836-18.326h414.77c8.189,0,15.924,5.566,17.066,13.674C450.922,357.5,443.296,365.955,433.695,365.955
		z"/>
	<path style="fill:#555655;" d="M369.695,301.955H50.926c-8.189,0-15.924-5.566-17.066-13.674
		c-1.39-9.87,6.235-18.326,15.836-18.326h318.77c8.189,0,15.924,5.566,17.066,13.674C386.922,293.5,379.296,301.955,369.695,301.955
		z"/>
</g>
<g>
</g>
<g>
</g>
<g>
</g>
<g>
</g>
<g>
</g>
<g>
</g>
<g>
</g>
<g>
</g>
<g>
</g>
<g>
</g>
<g>
</g>
<g>
</g>
<g>
</g>
<g>
</g>
<g>
</g>
</svg>
