<?xml version="1.0" encoding="iso-8859-1"?>
<!-- Generator: Adobe Illustrator 19.0.0, SVG Export Plug-In . SVG Version: 6.00 Build 0)  -->
<svg version="1.1" id="Capa_1" xmlns="http://www.w3.org/2000/svg" xmlns:xlink="http://www.w3.org/1999/xlink" x="0px" y="0px"
	 viewBox="0 0 448.13 448.13" style="enable-background:new 0 0 448.13 448.13;" xml:space="preserve">
<path style="fill:#EAF6FD;" d="M405.891,202.318C323.228,119.678,516.133,316.16,242.29,36.545c-6.246-6.248-16.379-6.248-22.625,0
	c-6.25,6.248-6.25,16.379,0,22.627l99.744,101.85c-41.785-4.453-85.138,9.269-117.166,41.296
	c-31.883,31.884-45.645,74.994-41.375,116.606L58.225,214.158c-6.248-6.249-16.379-6.249-22.627,0
	c-6.248,6.248-6.248,16.379,0,22.627l166.539,169.983l0.473-0.474c56.262,55.884,147.162,55.788,203.282-0.33
	C462.126,349.729,462.126,258.554,405.891,202.318z"/>
<circle style="fill:#D9E3D4;" cx="303.207" cy="303.92" r="112"/>
<g>
	<path style="fill:#BFC9BE;" d="M350.773,202.38c33.734,74.722-21.279,157.93-101.93,157.93c-16.413,0-31.885-3.726-45.93-10.07
		c17.562,38.89,56.489,66.07,101.93,66.07c61.857,0,112-50.145,112-112C416.842,258.865,389.662,219.941,350.773,202.38z"/>
	<path style="fill:#BFC9BE;" d="M258.211,242.898c-17.65,0-32,14.35-32,32s14.35,32,32,32c17.649,0,32-14.35,32-32
		S275.859,242.898,258.211,242.898z"/>
</g>
<g>
	<path style="fill:#B3BDB2;" d="M346.543,345.898c4.412,0,8,3.589,8,8s-3.588,8-8,8s-8-3.589-8-8S342.131,345.898,346.543,345.898
		 M346.543,329.898c-13.236,0-24,10.762-24,24s10.764,24,24,24c13.238,0,24-10.762,24-24S359.782,329.898,346.543,329.898z"/>
	<circle style="fill:#B3BDB2;" cx="269.207" cy="353.92" r="8"/>
</g>
<g>
	<circle style="fill:#BFC9BE;" cx="305.871" cy="228.896" r="4"/>
	<circle style="fill:#BFC9BE;" cx="313.871" cy="299.896" r="4"/>
	<circle style="fill:#BFC9BE;" cx="226.191" cy="330.24" r="4"/>
</g>
<g>
	<circle style="fill:#B3BDB2;" cx="377.871" cy="309.344" r="4"/>
	<circle style="fill:#B3BDB2;" cx="290.191" cy="388.68" r="4"/>
	<circle style="fill:#B3BDB2;" cx="351.207" cy="255.92" r="14"/>
</g>
<g>
	<path style="fill:#FCD95F;" d="M384.066,0.142c0,36.77-27.229,64-64,64c36.771,0,64,27.226,64,64c0-36.774,27.229-64,64-64
		C411.295,64.142,384.066,36.91,384.066,0.142z"/>
	<path style="fill:#FCD95F;" d="M64.066,352.142c0,18.385-13.614,32-32,32c18.386,0,32,13.614,32,32c0-18.386,13.614-32,32-32
		C77.681,384.142,64.066,370.526,64.066,352.142z"/>
</g>
<path style="fill:#C2D3DC;" d="M225.043,223.766l-22.09-22.09c-0.229,0.226-0.481,0.414-0.711,0.642
	c-7.543,7.545-13.992,15.754-19.514,24.388l22.682,22.682C210.706,239.91,217.332,231.29,225.043,223.766z"/>
<g>
	<circle style="fill:#EAF6FD;" cx="16.151" cy="192.24" r="16"/>
	<circle style="fill:#EAF6FD;" cx="16.063" cy="16.144" r="16"/>
	<circle style="fill:#EAF6FD;" cx="198.839" cy="16" r="16"/>
</g>
<path style="fill:#A7B0A6;" d="M246.473,245.194c-10.557,4.186-18.258,13.819-19.828,25.426l19.422,19.423
	c6.25,6.248,16.379,6.248,22.629,0c6.246-6.249,6.246-16.38,0-22.628L246.473,245.194z"/>
<path style="fill:#BFC9BE;" d="M205.41,249.387l21.234,21.234c1.57-11.607,9.271-21.24,19.828-25.426l-21.43-21.429
	C217.332,231.29,210.706,239.91,205.41,249.387z"/>
<path style="fill:#EAF6FD;" d="M279.331,279.406c6.248-6.248,6.248-16.379,0-22.627L59.38,36.827
	c-6.248-6.248-16.379-6.248-22.627,0s-6.249,16.379,0,22.627l219.951,219.951C262.953,285.654,273.083,285.654,279.331,279.406z"/>
<g>
</g>
<g>
</g>
<g>
</g>
<g>
</g>
<g>
</g>
<g>
</g>
<g>
</g>
<g>
</g>
<g>
</g>
<g>
</g>
<g>
</g>
<g>
</g>
<g>
</g>
<g>
</g>
<g>
</g>
</svg>
