<?xml version="1.0" encoding="iso-8859-1"?>
<!-- Generator: Adobe Illustrator 19.0.0, SVG Export Plug-In . SVG Version: 6.00 Build 0)  -->
<svg version="1.1" id="Capa_1" xmlns="http://www.w3.org/2000/svg" xmlns:xlink="http://www.w3.org/1999/xlink" x="0px" y="0px"
	 viewBox="0 0 448.197 448.197" style="enable-background:new 0 0 448.197 448.197;" xml:space="preserve">
<path style="fill:#D9E3D4;" d="M431.002,175.322c-59.854,0-108.682-46.966-111.781-106.05c-0.061-1.157-0.62-2.23-1.533-2.943
	s-2.091-1-3.228-0.778C262.928,75.603,224,120.864,224,175.338c0,61.855,50.142,112,112,112c59.526,0,107.66-46.297,111.67-103.823
	c0.162-2.329-0.702-4.61-2.362-6.251s-3.957-2.482-6.283-2.288C436.379,175.197,433.706,175.322,431.002,175.322z"/>
<path style="opacity:0.5;fill:#FFFFFF;enable-background:new    ;" d="M260.254,257.667c-18.363-19.95-29.672-46.494-29.672-75.746
	c0-53.893,38.074-98.866,88.789-109.559c-0.246-3.816-0.086-7.299-4.646-6.747C225.51,82.843,191.882,194.723,260.254,257.667z"/>
<path style="fill:#BFC9BE;" d="M290.999,130.339c8.822,0,16,7.178,16,16s-7.178,16-16,16s-16-7.178-16-16
	S282.177,130.339,290.999,130.339 M290.999,114.339c-17.65,0-32,14.35-32,32s14.35,32,32,32c17.65,0,32-14.35,32-32
	S308.648,114.339,290.999,114.339L290.999,114.339z"/>
<g>
	<path style="fill:#B3BDB2;" d="M379.332,217.339c4.411,0,8,3.588,8,8s-3.589,8-8,8s-8-3.588-8-8S374.921,217.339,379.332,217.339
		 M379.332,201.339c-13.238,0-24,10.762-24,24c0,13.238,10.762,24,24,24s24-10.762,24-24S392.57,201.339,379.332,201.339
		L379.332,201.339z"/>
	<circle style="fill:#B3BDB2;" cx="301.997" cy="225.338" r="8"/>
	<circle style="fill:#B3BDB2;" cx="346.693" cy="171.339" r="4"/>
	<circle style="fill:#B3BDB2;" cx="259.013" cy="201.643" r="4"/>
	<circle style="fill:#B3BDB2;" cx="410.693" cy="180.786" r="4"/>
	<circle style="fill:#B3BDB2;" cx="323.013" cy="260.122" r="4"/>
</g>
<path style="fill:#EAEDE5;" d="M305.752,218.398c0.617,1.134,1.058,2.371,1.058,3.753c0,4.418-3.582,8-8,8
	c-1.383,0-2.617-0.442-3.754-1.059c1.355,2.492,3.906,4.247,6.942,4.247c4.418,0,8-3.582,8-8
	C309.998,222.303,308.245,219.752,305.752,218.398z"/>
<g>
	<path style="fill:#FCD95F;" d="M144,15.339c0,36.77-27.229,64-64,64c36.771,0,64,27.226,64,64c0-36.774,27.229-64,64-64
		C171.229,79.338,144,52.108,144,15.339z"/>
	<path style="fill:#FCD95F;" d="M32,127.339c0,18.385-13.614,32-32,32c18.386,0,32,13.614,32,32c0-18.386,13.614-32,32-32
		C45.614,159.339,32,145.723,32,127.339z"/>
</g>
<g>
	<circle style="fill:#555655;" cx="48.133" cy="224.859" r="16"/>
	<circle style="fill:#555655;" cx="416.133" cy="416.859" r="16"/>
	<path style="fill:#555655;" d="M288.198,240.776H97.427c-8.189,0-15.924-5.566-17.066-13.674
		c-1.39-9.87,6.235-18.326,15.836-18.326h190.77c8.189,0,15.924,5.566,17.066,13.674
		C305.423,232.321,297.798,240.776,288.198,240.776z"/>
	<path style="fill:#555655;" d="M368.198,432.776h-254.77c-8.189,0-15.924-5.566-17.066-13.674
		c-1.39-9.87,6.235-18.326,15.836-18.326h254.77c8.189,0,15.924,5.566,17.066,13.674
		C385.423,424.321,377.798,432.776,368.198,432.776z"/>
	<path style="fill:#555655;" d="M432.198,368.776H17.427c-8.189,0-15.924-5.566-17.066-13.674
		c-1.39-9.87,6.235-18.326,15.836-18.326h414.77c8.189,0,15.924,5.566,17.066,13.674
		C449.423,360.321,441.798,368.776,432.198,368.776z"/>
	<path style="fill:#555655;" d="M368.198,304.776H49.427c-8.189,0-15.924-5.566-17.066-13.674
		c-1.39-9.87,6.235-18.326,15.836-18.326h318.77c8.189,0,15.924,5.566,17.066,13.674
		C385.423,296.321,377.798,304.776,368.198,304.776z"/>
</g>
<g>
</g>
<g>
</g>
<g>
</g>
<g>
</g>
<g>
</g>
<g>
</g>
<g>
</g>
<g>
</g>
<g>
</g>
<g>
</g>
<g>
</g>
<g>
</g>
<g>
</g>
<g>
</g>
<g>
</g>
</svg>
