<?xml version="1.0" encoding="iso-8859-1"?>
<!-- Generator: Adobe Illustrator 19.0.0, SVG Export Plug-In . SVG Version: 6.00 Build 0)  -->
<svg version="1.1" id="Capa_1" xmlns="http://www.w3.org/2000/svg" xmlns:xlink="http://www.w3.org/1999/xlink" x="0px" y="0px"
	 viewBox="0 0 448 448" style="enable-background:new 0 0 448 448;" xml:space="preserve">
<g>
	<path style="fill:#FCD95F;" d="M144,15.98c0,36.77-27.229,64-64,64c36.771,0,64,27.226,64,64c0-36.774,27.229-64,64-64
		C171.228,79.98,144,52.749,144,15.98z"/>
	<path style="fill:#FCD95F;" d="M32,127.98c0,18.385-13.614,32-32,32c18.386,0,32,13.614,32,32c0-18.386,13.614-32,32-32
		C45.614,159.98,32,146.364,32,127.98z"/>
</g>
<g>
	<circle style="fill:#555655;" cx="47.909" cy="224.02" r="16"/>
	<circle style="fill:#555655;" cx="415.909" cy="416.02" r="16"/>
	<path style="fill:#555655;" d="M97.23,239.939H288c9.601,0,17.226-8.457,15.836-18.324c-1.142-8.11-8.878-13.676-17.066-13.676H96
		c-9.601,0-17.226,8.453-15.836,18.324C81.306,234.372,89.041,239.939,97.23,239.939z"/>
	<path style="fill:#555655;" d="M366.77,399.939H112c-9.601,0-17.226,8.453-15.836,18.324c1.142,8.11,8.877,13.676,17.066,13.676
		H368c9.601,0,17.226-8.457,15.836-18.324C382.694,405.505,374.958,399.939,366.77,399.939z"/>
	<path style="fill:#555655;" d="M447.836,349.615c-1.142-8.11-8.878-13.676-17.066-13.676H16c-9.601,0-17.226,8.453-15.836,18.324
		c1.142,8.11,8.877,13.676,17.066,13.676H432C441.601,367.939,449.226,359.482,447.836,349.615z"/>
	<path style="fill:#555655;" d="M32.164,290.264c1.142,8.11,8.877,13.676,17.066,13.676H368c9.601,0,17.226-8.457,15.836-18.324
		c-1.142-8.11-8.878-13.676-17.066-13.676H48C38.399,271.939,30.774,280.392,32.164,290.264z"/>
</g>
<g>
</g>
<g>
</g>
<g>
</g>
<g>
</g>
<g>
</g>
<g>
</g>
<g>
</g>
<g>
</g>
<g>
</g>
<g>
</g>
<g>
</g>
<g>
</g>
<g>
</g>
<g>
</g>
<g>
</g>
</svg>
