<?xml version="1.0" encoding="iso-8859-1"?>
<!-- Generator: Adobe Illustrator 19.0.0, SVG Export Plug-In . SVG Version: 6.00 Build 0)  -->
<svg version="1.1" id="Capa_1" xmlns="http://www.w3.org/2000/svg" xmlns:xlink="http://www.w3.org/1999/xlink" x="0px" y="0px"
	 viewBox="0 0 464 464" style="enable-background:new 0 0 464 464;" xml:space="preserve">
<circle style="fill:#FAFDFF;" cx="224.022" cy="240" r="224"/>
<circle style="fill:#EAF6FD;" cx="224.022" cy="240" r="192"/>
<g>
	<path style="fill:#FCD95F;" d="M400,0c0,36.77-27.229,64-64,64c36.771,0,64,27.226,64,64c0-36.774,27.229-64,64-64
		C427.229,64,400,36.77,400,0z"/>
	<path style="fill:#FCD95F;" d="M32,16c0,18.385-13.614,32-32,32c18.386,0,32,13.614,32,32c0-18.386,13.614-32,32-32
		C45.614,48,32,34.385,32,16z"/>
</g>
<circle style="fill:#D9E3D4;" cx="224.022" cy="240" r="160"/>
<path style="fill:#BFC9BE;" d="M280,90.275C219.297,112.997,176,171.366,176,240c0,68.633,43.297,127.003,104,149.725
	C340.703,367.003,384,308.633,384,240C384,171.366,340.703,112.997,280,90.275z"/>
<path style="fill:#EDF1EA;" d="M124.164,353.136c-62.483-62.483-62.486-163.789,0-226.274
	c29.545-29.545,67.78-44.943,106.476-46.546c-43.134-1.781-86.845,13.614-119.777,46.547c-62.483,62.483-62.485,163.79,0,226.274
	c32.934,32.934,76.651,48.327,119.787,46.543C191.949,398.078,153.713,382.685,124.164,353.136z"/>
<path style="fill:#BCC5B8;" d="M176,240c0-5.969,0.442-11.825,1.078-17.622c-4.942,3.664-10.992,5.907-17.602,5.907
	c-16.386,0-29.715-13.329-29.715-29.714s13.328-29.714,29.715-29.714c11.516,0,21.41,6.652,26.34,16.253
	c2.156-5.878,4.558-11.634,7.366-17.164c-8.367-9.202-20.313-15.089-33.705-15.089c-25.215,0-45.715,20.5-45.715,45.714
	s20.5,45.714,45.715,45.714c5.855,0,11.414-1.204,16.566-3.218C176.039,240.708,176,240.358,176,240z"/>
<path style="fill:#B3BDB2;" d="M285.906,293.142c10.082,0,18.285,8.203,18.285,18.286s-8.203,18.286-18.285,18.286
	c-10.086,0-18.289-8.203-18.289-18.286S275.82,293.142,285.906,293.142 M285.906,277.142c-18.914,0-34.289,15.375-34.289,34.286
	c0,18.911,15.375,34.286,34.289,34.286c18.91,0,34.285-15.375,34.285-34.286C320.191,292.518,304.817,277.142,285.906,277.142z"/>
<circle style="fill:#BCC5B8;" cx="175.462" cy="311.44" r="11.432"/>
<g>
	<circle style="fill:#B3BDB2;" cx="234.286" cy="138.288" r="5.712"/>
	<circle style="fill:#B3BDB2;" cx="239.222" cy="234.288" r="5.712"/>
</g>
<circle style="fill:#BCC5B8;" cx="113.998" cy="277.584" r="5.712"/>
<circle style="fill:#B3BDB2;" cx="330.662" cy="247.76" r="5.712"/>
<circle style="fill:#BCC5B8;" cx="205.43" cy="361.12" r="5.712"/>
<circle style="fill:#B3BDB2;" cx="292.574" cy="171.432" r="20"/>
<path style="fill:#A7B0A6;" d="M189.191,198.571c0,9.774-4.805,18.388-12.114,23.806c-0.637,5.797-1.078,11.654-1.078,17.622
	c0,0.358,0.039,0.708,0.043,1.066c17.019-6.658,29.149-23.138,29.149-42.495c0-11.822-4.625-22.503-12.01-30.625
	c-2.806,5.53-5.209,11.286-7.366,17.164C187.901,189.17,189.191,193.701,189.191,198.571z"/>
<g>
</g>
<g>
</g>
<g>
</g>
<g>
</g>
<g>
</g>
<g>
</g>
<g>
</g>
<g>
</g>
<g>
</g>
<g>
</g>
<g>
</g>
<g>
</g>
<g>
</g>
<g>
</g>
<g>
</g>
</svg>
