<?xml version="1.0" encoding="iso-8859-1"?>
<!-- Generator: Adobe Illustrator 19.0.0, SVG Export Plug-In . SVG Version: 6.00 Build 0)  -->
<svg version="1.1" id="Capa_1" xmlns="http://www.w3.org/2000/svg" xmlns:xlink="http://www.w3.org/1999/xlink" x="0px" y="0px"
	 viewBox="0 0 464.001 464.001" style="enable-background:new 0 0 464.001 464.001;" xml:space="preserve">
<circle style="fill:#FAFDFF;" cx="224" cy="239.998" r="224"/>
<circle style="fill:#EAF6FD;" cx="224" cy="239.998" r="192"/>
<g>
	<path style="fill:#FCD95F;" d="M400.001,0.002c0,36.77-27.229,64-64,64c36.771,0,64,27.226,64,64c0-36.774,27.229-64,64-64
		C427.229,64.002,400.001,36.772,400.001,0.002z"/>
	<path style="fill:#FCD95F;" d="M32.001,16.002c0,18.385-13.614,32-32,32c18.386,0,32,13.614,32,32c0-18.386,13.614-32,32-32
		C45.615,48.002,32.001,34.387,32.001,16.002z"/>
</g>
<circle style="fill:#D9E3D4;" cx="224" cy="239.998" r="160"/>
<path style="fill:#BFC9BE;" d="M224.001,80.002c-16.726,0-32.844,2.587-48,7.348c64.91,20.392,112,81.013,112,152.652
	c0,71.638-47.09,132.261-112,152.652c15.156,4.761,31.274,7.348,48,7.348c88.366,0,160-71.634,160-160
	C384.001,151.636,312.366,80.002,224.001,80.002z"/>
<path style="fill:#EDF1EA;" d="M124.164,353.138c-62.483-62.483-62.486-163.789,0-226.274
	c29.545-29.545,67.78-44.943,106.476-46.546c-43.134-1.781-86.845,13.614-119.777,46.547c-62.483,62.483-62.485,163.79,0,226.274
	c32.934,32.934,76.651,48.327,119.787,46.543C191.949,398.08,153.714,382.687,124.164,353.138z"/>
<g>
	<path style="fill:#BCC5B8;" d="M159.476,168.859c16.386,0,29.715,13.33,29.715,29.714c0,16.384-13.328,29.714-29.715,29.714
		s-29.715-13.33-29.715-29.714S143.09,168.859,159.476,168.859 M159.476,152.859c-25.215,0-45.715,20.5-45.715,45.714
		s20.5,45.714,45.715,45.714s45.715-20.5,45.715-45.714S184.691,152.859,159.476,152.859z"/>
	<path style="fill:#BCC5B8;" d="M285.907,293.145c10.082,0,18.285,8.203,18.285,18.286s-8.203,18.286-18.285,18.286
		c-10.086,0-18.289-8.203-18.289-18.286S275.821,293.145,285.907,293.145 M285.907,277.145c-18.914,0-34.289,15.375-34.289,34.286
		c0,18.911,15.375,34.286,34.289,34.286c18.91,0,34.285-15.375,34.285-34.286C320.192,292.52,304.817,277.145,285.907,277.145z"/>
</g>
<path style="fill:#B3BDB2;" d="M285.907,277.145c-0.806,0-1.562,0.183-2.355,0.238c-1.442,6.022-3.271,11.883-5.375,17.618
	c2.367-1.121,4.942-1.857,7.73-1.857c10.082,0,18.285,8.203,18.285,18.286c0,10.082-8.203,18.285-18.285,18.285
	c-8.367,0-15.142-5.758-17.309-13.439c-2.981,5.482-6.301,10.742-9.881,15.811c6.267,8.226,16.066,13.628,27.19,13.628
	c18.91,0,34.285-15.375,34.285-34.285C320.192,292.52,304.817,277.145,285.907,277.145z"/>
<g>
	<circle style="fill:#BCC5B8;" cx="175.432" cy="311.43" r="11.432"/>
	<circle style="fill:#BCC5B8;" cx="218.288" cy="138.286" r="5.712"/>
	<circle style="fill:#BCC5B8;" cx="239.24" cy="234.286" r="5.712"/>
	<circle style="fill:#BCC5B8;" cx="114" cy="277.55" r="5.712"/>
</g>
<circle style="fill:#B3BDB2;" cx="330.664" cy="247.782" r="5.712"/>
<circle style="fill:#BCC5B8;" cx="205.44" cy="361.118" r="5.712"/>
<circle style="fill:#B3BDB2;" cx="292.56" cy="171.43" r="20"/>
<g>
</g>
<g>
</g>
<g>
</g>
<g>
</g>
<g>
</g>
<g>
</g>
<g>
</g>
<g>
</g>
<g>
</g>
<g>
</g>
<g>
</g>
<g>
</g>
<g>
</g>
<g>
</g>
<g>
</g>
</svg>
