<?xml version="1.0" encoding="iso-8859-1"?>
<!-- Generator: Adobe Illustrator 19.0.0, SVG Export Plug-In . SVG Version: 6.00 Build 0)  -->
<svg version="1.1" id="Capa_1" xmlns="http://www.w3.org/2000/svg" xmlns:xlink="http://www.w3.org/1999/xlink" x="0px" y="0px"
	 viewBox="0 0 464.015 464.015" style="enable-background:new 0 0 464.015 464.015;" xml:space="preserve">
<circle style="fill:#FAFDFF;" cx="224.006" cy="240.015" r="224"/>
<circle style="fill:#EAF6FD;" cx="224.006" cy="240.015" r="192"/>
<circle style="fill:#D9E3D4;" cx="224.006" cy="240.015" r="160"/>
<path style="fill:#BFC9BE;" d="M224.009,80v320c88.366,0,160-71.634,160-160C384.009,151.634,312.374,80,224.009,80z"/>
<g>
	<path style="fill:#FCD95F;" d="M400.009,0c0,36.77-27.229,64-64,64c36.771,0,64,27.226,64,64c0-36.774,27.229-64,64-64
		C427.237,64,400.009,36.77,400.009,0z"/>
	<path style="fill:#FCD95F;" d="M32.009,16c0,18.385-13.614,32-32,32c18.386,0,32,13.614,32,32c0-18.386,13.614-32,32-32
		C45.623,48,32.009,34.385,32.009,16z"/>
</g>
<path style="fill:#EDF1EA;" d="M124.172,353.136c-62.483-62.483-62.486-163.789,0-226.274
	c29.545-29.545,67.78-44.943,106.476-46.546c-43.134-1.781-86.845,13.614-119.777,46.547c-62.483,62.483-62.485,163.79,0,226.274
	c32.934,32.934,76.651,48.327,119.787,46.543C191.957,398.078,153.721,382.685,124.172,353.136z"/>
<path style="fill:#A7B0A6;" d="M285.915,293.142c10.082,0,18.285,8.203,18.285,18.286c0,10.082-8.203,18.285-18.285,18.285
	c-10.084,0-18.289-8.203-18.289-18.285C267.626,301.346,275.831,293.142,285.915,293.142 M285.915,277.142
	c-18.914,0-34.289,15.375-34.289,34.286c0,18.91,15.375,34.285,34.289,34.285c18.91,0,34.285-15.375,34.285-34.285
	C320.2,292.518,304.825,277.142,285.915,277.142z"/>
<circle style="fill:#BCC5B8;" cx="175.438" cy="311.455" r="11.432"/>
<g>
	<circle style="fill:#A7B0A6;" cx="250.294" cy="127.999" r="5.712"/>
	<circle style="fill:#A7B0A6;" cx="239.246" cy="234.287" r="5.712"/>
</g>
<circle style="fill:#BCC5B8;" cx="113.974" cy="277.583" r="5.712"/>
<circle style="fill:#A7B0A6;" cx="330.694" cy="247.775" r="5.712"/>
<circle style="fill:#BCC5B8;" cx="205.438" cy="361.135" r="5.712"/>
<circle style="fill:#A7B0A6;" cx="292.614" cy="171.431" r="20"/>
<path style="fill:#BCC5B8;" d="M159.723,168.858c16.385,0,29.715,13.329,29.715,29.714s-13.33,29.715-29.715,29.715
	s-29.715-13.33-29.715-29.715S143.338,168.858,159.723,168.858 M159.723,152.858c-25.215,0-45.715,20.5-45.715,45.714
	c0,25.215,20.5,45.715,45.715,45.715s45.715-20.5,45.715-45.715C205.438,173.358,184.938,152.858,159.723,152.858z"/>
<g>
</g>
<g>
</g>
<g>
</g>
<g>
</g>
<g>
</g>
<g>
</g>
<g>
</g>
<g>
</g>
<g>
</g>
<g>
</g>
<g>
</g>
<g>
</g>
<g>
</g>
<g>
</g>
<g>
</g>
</svg>
