<?xml version="1.0" encoding="iso-8859-1"?>
<!-- Generator: Adobe Illustrator 19.0.0, SVG Export Plug-In . SVG Version: 6.00 Build 0)  -->
<svg version="1.1" id="Capa_1" xmlns="http://www.w3.org/2000/svg" xmlns:xlink="http://www.w3.org/1999/xlink" x="0px" y="0px"
	 viewBox="0 0 464 464" style="enable-background:new 0 0 464 464;" xml:space="preserve">
<path style="fill:#CCCBCB;" d="M215.617,288v127.935c0,8.912-7.297,15.968-16.207,15.968c-8.894,0-16.114-7.216-16.114-16.128
	c0-8.88-7.168-16.063-16.031-16.063c-8.898,0-16.062,7.183-16.062,16.063c0,26.656,21.566,48.225,48.207,48.225
	c26.656,0,48.207-21.408,48.207-48.065V288H215.617z"/>
<path style="fill:#010101;" d="M215.617,383.936c0,10.656,0,21.344,0,32c0,8.912-7.296,15.968-16.208,15.968
	c-8.896,0-16.112-7.216-16.112-16.128c0-8.88-7.168-16.064-16.032-16.064c-8.896,0-16.064,7.184-16.064,16.064
	c0,26.656,21.568,48.224,48.208,48.224c26.656,0,48.208-21.408,48.208-48.064c0-11.664,0-22.144,0-32H215.617z"/>
<polygon style="fill:#ABABAB;" points="247.617,352 215.617,320 215.617,288 247.617,288 "/>
<path style="fill:#C23D28;" d="M87.617,304c27.43,0,52.527,9.894,72,26.264c19.473-16.37,44.57-26.264,72-26.264
	s52.527,9.894,72,26.264c19.473-16.37,44.57-26.264,72-26.264c30.95,0,58.965,12.554,79.234,32.846
	C447.028,220.234,350.211,128,231.617,128C113.02,128,16.207,220.234,8.383,336.848C28.652,316.555,56.668,304,87.617,304z"/>
<path style="fill:#AD372B;" d="M231.617,128c40.863,0,74.508,85.842,79.344,196.603C329.227,311.645,351.516,304,375.617,304
	c30.95,0,58.965,12.554,79.234,32.846C447.028,220.234,350.211,128,231.617,128z"/>
<g>
	<path style="fill:#A4C4E7;" d="M71.617,32c-13.808,13.808-32,26.832-32,45.248c0,42.288,64,42.336,64,0
		C103.617,58.816,85.425,45.808,71.617,32z"/>
	<path style="fill:#A4C4E7;" d="M423.617,96c-13.808,13.808-32,26.832-32,45.248c0,42.288,64,42.336,64,0
		C455.617,122.816,437.425,109.808,423.617,96z"/>
	<path style="fill:#A4C4E7;" d="M343.616,0c-34.105,34.104-48.002,42.9-48.002,67.884c0,26.508,21.493,48,48.002,48
		s48.002-21.492,48.002-48C391.617,42.924,377.793,34.176,343.616,0z"/>
</g>
<g>
</g>
<g>
</g>
<g>
</g>
<g>
</g>
<g>
</g>
<g>
</g>
<g>
</g>
<g>
</g>
<g>
</g>
<g>
</g>
<g>
</g>
<g>
</g>
<g>
</g>
<g>
</g>
<g>
</g>
</svg>
