<?xml version="1.0" encoding="iso-8859-1"?>
<!-- Generator: Adobe Illustrator 19.0.0, SVG Export Plug-In . SVG Version: 6.00 Build 0)  -->
<svg version="1.1" id="Capa_1" xmlns="http://www.w3.org/2000/svg" xmlns:xlink="http://www.w3.org/1999/xlink" x="0px" y="0px"
	 viewBox="0 0 464 464" style="enable-background:new 0 0 464 464;" xml:space="preserve">
<path style="fill:#F3F3F3;" d="M360,64c-5.588,0-11.031,0.578-16.355,1.494C321.726,26.435,279.977,0,232,0
	s-89.726,26.435-111.645,65.494C115.031,64.578,109.588,64,104,64c-53.019,0-96,42.981-96,96s42.981,96,96,96h256
	c53.019,0,96-42.981,96-96S413.02,64,360,64z"/>
<path style="fill:#E1E1E1;" d="M360,64c-5.586,0-11.031,0.578-16.355,1.494c-0.098-0.177-0.23-0.332-0.332-0.509
	c10.57,18.62,16.687,40.1,16.687,63.041C360,198.704,302.703,256,232.027,256H360c53.019,0,96-42.981,96-96S413.02,64,360,64z"/>
<polygon style="fill:#F9DB7B;" points="280,223.328 216,223.328 216,96 120,255.328 184,255.328 184,383.328 "/>
<g>
	<circle style="fill:#70A9DC;" cx="399.966" cy="328.003" r="8"/>
	<path style="fill:#70A9DC;" d="M400,272c-4.418,0-8,3.581-8,8v16c0,4.418,3.582,8,8,8s8-3.582,8-8v-16
		C408,275.582,404.418,272,400,272z"/>
	<path style="fill:#70A9DC;" d="M400,352c-4.418,0-8,3.581-8,7.999V376c0,4.418,3.582,8,8,8s8-3.582,8-8v-16.001
		C408,355.582,404.418,352,400,352z"/>
	<path style="fill:#70A9DC;" d="M376.301,305.08l-13.855-8c-3.828-2.209-8.718-0.898-10.93,2.928s-0.898,8.718,2.93,10.928l13.855,8
		c3.824,2.209,8.718,0.898,10.926-2.928C381.438,312.182,380.125,307.29,376.301,305.08z"/>
	<path style="fill:#70A9DC;" d="M445.582,345.082l-13.855-8c-3.828-2.209-8.718-0.898-10.93,2.928
		c-2.207,3.827-0.898,8.72,2.93,10.929l13.855,8c3.828,2.209,8.718,0.898,10.93-2.929
		C450.719,352.183,449.41,347.29,445.582,345.082z"/>
	<path style="fill:#70A9DC;" d="M368.274,337.082l-13.851,8c-3.828,2.209-5.141,7.102-2.93,10.928
		c2.211,3.827,7.102,5.138,10.93,2.929l13.851-8c3.828-2.209,5.141-7.102,2.93-10.928
		C376.992,336.183,372.102,334.872,368.274,337.082z"/>
	<path style="fill:#70A9DC;" d="M431.703,318.941l13.855-8c3.824-2.209,5.137-7.102,2.93-10.928
		c-2.211-3.826-7.106-5.137-10.93-2.928l-13.855,8c-3.828,2.209-5.137,7.102-2.93,10.928
		C422.985,319.839,427.875,321.15,431.703,318.941z"/>
	<circle style="fill:#70A9DC;" cx="287.966" cy="408.003" r="8"/>
	<path style="fill:#70A9DC;" d="M288,352c-4.418,0-8,3.581-8,8v16c0,4.418,3.582,8,8,8s8-3.582,8-8v-16
		C296,355.582,292.418,352,288,352z"/>
	<path style="fill:#70A9DC;" d="M288,432c-4.418,0-8,3.581-8,7.999V456c0,4.418,3.582,8,8,8s8-3.582,8-8v-16.001
		C296,435.582,292.418,432,288,432z"/>
	<path style="fill:#70A9DC;" d="M264.301,385.08l-13.855-8c-3.828-2.209-8.718-0.898-10.93,2.928s-0.898,8.718,2.93,10.928l13.855,8
		c3.824,2.209,8.718,0.898,10.926-2.928C269.438,392.182,268.125,387.29,264.301,385.08z"/>
	<path style="fill:#70A9DC;" d="M333.582,425.082l-13.855-8c-3.828-2.209-8.718-0.898-10.93,2.928
		c-2.207,3.827-0.898,8.72,2.93,10.929l13.855,8c3.828,2.209,8.718,0.898,10.93-2.929
		C338.719,432.183,337.41,427.29,333.582,425.082z"/>
	<path style="fill:#70A9DC;" d="M256.274,417.082l-13.851,8c-3.828,2.209-5.141,7.102-2.93,10.928
		c2.211,3.827,7.102,5.138,10.93,2.929l13.851-8c3.828-2.209,5.141-7.102,2.93-10.928
		C264.992,416.183,260.102,414.872,256.274,417.082z"/>
	<path style="fill:#70A9DC;" d="M319.703,398.941l13.855-8c3.824-2.209,5.137-7.102,2.93-10.928
		c-2.211-3.826-7.106-5.137-10.93-2.928l-13.855,8c-3.828,2.209-5.137,7.102-2.93,10.928
		C310.985,399.839,315.875,401.15,319.703,398.941z"/>
</g>
<g>
</g>
<g>
</g>
<g>
</g>
<g>
</g>
<g>
</g>
<g>
</g>
<g>
</g>
<g>
</g>
<g>
</g>
<g>
</g>
<g>
</g>
<g>
</g>
<g>
</g>
<g>
</g>
<g>
</g>
</svg>
