<?xml version="1.0" encoding="iso-8859-1"?>
<!-- Generator: Adobe Illustrator 19.0.0, SVG Export Plug-In . SVG Version: 6.00 Build 0)  -->
<svg version="1.1" id="Capa_1" xmlns="http://www.w3.org/2000/svg" xmlns:xlink="http://www.w3.org/1999/xlink" x="0px" y="0px"
	 viewBox="0 0 448 448" style="enable-background:new 0 0 448 448;" xml:space="preserve">
<g>
	<path style="fill:#DFE9F7;" d="M240.144,80.192C240.144,35.904,204.416,0,160.096,0c-44.288,0-79.968,34.496-79.968,78.784V256
		C60.384,276.256,48,305.28,48,335.808C48,397.744,98.256,448,160.256,448c61.968,0,112.256-50.256,112.256-112.192
		c0-30.688-12.496-58.432-32.368-78.72V80.192z"/>
	<rect x="127.996" y="63.998" style="fill:#DFE9F7;" width="64" height="96"/>
</g>
<path style="fill:#D64230;" d="M192.256,280.684V159.808h-64v120.877c-19.05,11.086-32,31.494-32,55.123c0,35.346,28.652,64,64,64
	s64-28.654,64-64C224.256,312.179,211.306,291.77,192.256,280.684z"/>
<polygon style="fill:#5785C4;" points="352.256,192 400,128 368.128,128.128 368.128,64.128 336.128,64.128 336.128,128.128 
	304,128 "/>
<g>
</g>
<g>
</g>
<g>
</g>
<g>
</g>
<g>
</g>
<g>
</g>
<g>
</g>
<g>
</g>
<g>
</g>
<g>
</g>
<g>
</g>
<g>
</g>
<g>
</g>
<g>
</g>
<g>
</g>
</svg>
