<?xml version="1.0" encoding="iso-8859-1"?>
<!-- Generator: Adobe Illustrator 19.0.0, SVG Export Plug-In . SVG Version: 6.00 Build 0)  -->
<svg version="1.1" id="Capa_1" xmlns="http://www.w3.org/2000/svg" xmlns:xlink="http://www.w3.org/1999/xlink" x="0px" y="0px"
	 viewBox="0 0 461.935 461.935" style="enable-background:new 0 0 461.935 461.935;" xml:space="preserve">
<circle style="fill:#70A9DC;" cx="185.067" cy="32.339" r="16"/>
<path style="fill:#A4C4E7;" d="M374.125,182.952l37.234-64.453c2.859-4.946,2.859-11.047,0-16c-2.859-4.953-8.141-8-13.859-8
	h-74.438l-37.203-64.454c-5.718-9.906-22-9.906-27.718,0l-37.203,64.453H146.5c-5.718,0-11,3.047-13.859,8
	c-2.859,4.953-2.859,11.054,0,16l37.234,64.453l-37.234,64.461c-2.859,4.946-2.859,11.047,0,16c2.859,4.953,8.141,8,13.859,8h74.438
	l37.203,64.453c2.859,4.953,8.141,8,13.859,8s11-3.047,13.859-8l37.203-64.453H397.5c5.718,0,11-3.047,13.859-8s2.859-11.054,0-16
	L374.125,182.952z M346.406,166.968h-46.695l23.359-40.469h46.711L346.406,166.968z M272,70.045l23.351,40.453L272,150.955
	l-23.351-40.457L272,70.045z M220.93,126.499l23.355,40.464l-46.699-0.009l-23.367-40.455H220.93z M197.582,198.953l46.703,0.009
	l-23.355,40.45h-46.711L197.582,198.953z M272,295.866l-23.351-40.452L272,214.972l23.351,40.442L272,295.866z M323.07,239.412
	l-23.351-40.446h46.707l23.355,40.446H323.07z"/>
<path style="fill:#94B0D0;" d="M132.641,263.412c2.859,4.953,8.141,8,13.859,8h74.438l37.203,64.453c2.859,4.953,8.141,8,13.859,8
	s11-3.047,13.859-8l37.203-64.453H397.5c3.336,0,6.457-1.136,9.102-2.983l-47.484-47.486l10.664,18.469H323.07l-23.351-40.446
	h37.422l-32-32h-5.43l1.984-3.442l-23.43-23.43L272,150.955l-23.351-40.457L225.231,87.06l-4.293,7.438h-74.438
	c-5.718,0-11,3.047-13.859,8c-2.859,4.953-2.859,11.054,0,16l37.234,64.453l-37.234,64.461
	C129.782,252.358,129.782,258.46,132.641,263.412z M272,214.971l23.351,40.442L272,295.865l-23.351-40.452L272,214.971z
	 M220.93,126.499l23.355,40.464l-46.699-0.009l-23.367-40.455H220.93z M197.582,198.953l46.703,0.009l-23.355,40.45h-46.711
	L197.582,198.953z"/>
<path style="fill:#DFE9F7;" d="M192.144,87.16c0-44.288-35.728-80.192-80.048-80.192c-44.288,0-79.968,34.496-79.968,78.784v177.216
	C12.384,283.224,0,312.248,0,342.776c0,61.936,50.256,112.192,112.256,112.192c61.968,0,112.256-50.256,112.256-112.192
	c0-30.688-12.496-58.432-32.368-78.72V87.16z"/>
<rect x="80.003" y="70.971" style="fill:#C2D6EF;" width="64" height="96"/>
<path style="fill:#D64230;" d="M144.256,287.651V166.775h-64v120.877c-19.05,11.086-32,31.494-32,55.123c0,35.346,28.652,64,64,64
	s64-28.654,64-64C176.256,319.146,163.306,298.738,144.256,287.651z"/>
<g>
	<circle style="fill:#70A9DC;" cx="358.971" cy="333.571" r="16"/>
	<ellipse style="fill:#70A9DC;" cx="445.933" cy="182.99" rx="16" ry="16"/>
	<ellipse style="fill:#70A9DC;" cx="358.964" cy="32.35" rx="16" ry="16"/>
</g>
<g>
</g>
<g>
</g>
<g>
</g>
<g>
</g>
<g>
</g>
<g>
</g>
<g>
</g>
<g>
</g>
<g>
</g>
<g>
</g>
<g>
</g>
<g>
</g>
<g>
</g>
<g>
</g>
<g>
</g>
</svg>
