<?xml version="1.0" encoding="iso-8859-1"?>
<!-- Generator: Adobe Illustrator 19.0.0, SVG Export Plug-In . SVG Version: 6.00 Build 0)  -->
<svg version="1.1" id="Capa_1" xmlns="http://www.w3.org/2000/svg" xmlns:xlink="http://www.w3.org/1999/xlink" x="0px" y="0px"
	 viewBox="0 0 448 448" style="enable-background:new 0 0 448 448;" xml:space="preserve">
<path style="fill:#DFE9F7;" d="M303.888,80.192C303.888,35.904,268.16,0,223.84,0c-44.288,0-79.968,34.496-79.968,78.784V256
	c-19.744,20.256-32.128,49.28-32.128,79.808C111.744,397.744,162,448,224,448c61.968,0,112.256-50.256,112.256-112.192
	c0-30.688-12.496-58.432-32.368-78.72L303.888,80.192L303.888,80.192z"/>
<rect x="191.778" y="64.003" style="fill:#C2D6EF;" width="64" height="96"/>
<path style="fill:#D64230;" d="M256,280.683V159.807h-64v120.877c-19.05,11.086-32,31.494-32,55.123c0,35.346,28.652,64,64,64
	s64-28.654,64-64C288,312.178,275.05,291.77,256,280.683z"/>
<g>
</g>
<g>
</g>
<g>
</g>
<g>
</g>
<g>
</g>
<g>
</g>
<g>
</g>
<g>
</g>
<g>
</g>
<g>
</g>
<g>
</g>
<g>
</g>
<g>
</g>
<g>
</g>
<g>
</g>
</svg>
