<?xml version="1.0" encoding="iso-8859-1"?>
<!-- Generator: Adobe Illustrator 19.0.0, SVG Export Plug-In . SVG Version: 6.00 Build 0)  -->
<svg version="1.1" id="Capa_1" xmlns="http://www.w3.org/2000/svg" xmlns:xlink="http://www.w3.org/1999/xlink" x="0px" y="0px"
	 viewBox="0 0 464 464" style="enable-background:new 0 0 464 464;" xml:space="preserve">
<path style="fill:#F3F3F3;" d="M368,168c-5.588,0-11.031,0.578-16.355,1.494C329.727,130.435,287.977,104,240,104
	s-89.726,26.434-111.645,65.494C123.031,168.578,117.588,168,112,168c-53.019,0-96,42.981-96,96s42.981,96,96,96h256
	c53.019,0,96-42.981,96-96S421.019,168,368,168z"/>
<path style="fill:#E1E1E1;" d="M368,168c-5.586,0-10.992,0.645-16.313,1.567C362.038,188.045,368,209.314,368,232
	c0,70.692-57.309,128-128,128h128c53.019,0,96-42.981,96-96S421.019,168,368,168z"/>
<g>
	<path style="fill:#B7CEEB;" d="M437.687,197.969c-6.062-6.414-16.203-6.672-22.61-0.61c-6.422,6.086-6.687,16.211-0.61,22.625
		c11.297,11.93,17.531,27.562,17.531,44.016c0,35.289-28.703,64-64,64h-43.621c26.676-23.475,43.621-57.758,43.621-96
		c0-70.578-57.422-128-128-128c-8.844,0-16,7.164-16,16s7.156,16,16,16c52.938,0,96,43.062,96,96s-43.062,96-96,96h-176
		c-8.844,0-16,7.164-16,16s7.156,16,16,16h304c52.938,0,96-43.062,96-96C464,239.32,454.656,215.874,437.687,197.969z"/>
	<path style="fill:#B7CEEB;" d="M304,232c0-35.289-28.703-64-64-64c-8.844,0-16,7.164-16,16s7.156,16,16,16
		c17.641,0,32,14.351,32,32s-14.359,32-32,32H16c-8.844,0-16,7.164-16,16s7.156,16,16,16h224C275.297,296,304,267.289,304,232z"/>
	<path style="fill:#B7CEEB;" d="M48,232h97.344c8.844,0,16-7.164,16-16s-7.156-16-16-16H48c-8.844,0-16,7.164-16,16
		S39.156,232,48,232z"/>
</g>
<g>
</g>
<g>
</g>
<g>
</g>
<g>
</g>
<g>
</g>
<g>
</g>
<g>
</g>
<g>
</g>
<g>
</g>
<g>
</g>
<g>
</g>
<g>
</g>
<g>
</g>
<g>
</g>
<g>
</g>
</svg>
